<svg width="35" height="35" viewBox="0 0 35 35" fill="none" xmlns="http://www.w3.org/2000/svg">
<path d="M15.3125 30.625C16.5206 30.625 17.5 29.6456 17.5 28.4375C17.5 27.2294 16.5206 26.25 15.3125 26.25C14.1044 26.25 13.125 27.2294 13.125 28.4375C13.125 29.6456 14.1044 30.625 15.3125 30.625Z" fill="#F8F8F8"/>
<path d="M25.5208 30.625C26.7289 30.625 27.7083 29.6456 27.7083 28.4375C27.7083 27.2294 26.7289 26.25 25.5208 26.25C24.3127 26.25 23.3333 27.2294 23.3333 28.4375C23.3333 29.6456 24.3127 30.625 25.5208 30.625Z" fill="#F8F8F8"/>
<path d="M30.625 10.2083H10.6954L9.01252 6.16876C8.7916 5.63667 8.41768 5.18216 7.93816 4.86282C7.45864 4.54349 6.8951 4.37371 6.31898 4.37501H2.91669V7.29167H6.32044L13.2373 23.8948C13.4634 24.4373 13.9956 24.7917 14.5834 24.7917H26.25C26.8581 24.7917 27.4021 24.414 27.6165 23.8467L31.9915 12.18C32.0734 11.9592 32.1009 11.7219 32.0714 11.4882C32.042 11.2545 31.9565 11.0314 31.8224 10.8379C31.6882 10.6443 31.5093 10.486 31.3009 10.3764C31.0924 10.2668 30.8605 10.2091 30.625 10.2083ZM24.7917 18.9583H21.875V21.875H18.9584V18.9583H16.0417V16.0417H18.9584V13.125H21.875V16.0417H24.7917V18.9583Z" fill="#F8F8F8"/>
</svg>
