<svg width="35" height="35" viewBox="0 0 35 35" fill="none" xmlns="http://www.w3.org/2000/svg">
<g clip-path="url(#clip0_7_290)">
<path d="M22.75 17.5C22.75 18.8923 22.1969 20.2277 21.2123 21.2123C20.2278 22.1968 18.8924 22.75 17.5 22.75C16.1076 22.75 14.7723 22.1968 13.7877 21.2123C12.8031 20.2277 12.25 18.8923 12.25 17.5C12.25 17.2007 12.2815 16.9085 12.3358 16.625H10.5V23.6197C10.5 24.1062 10.8938 24.5 11.3803 24.5H23.6215C23.8547 24.4995 24.0781 24.4065 24.2428 24.2415C24.4075 24.0765 24.5 23.8529 24.5 23.6197V16.625H22.6643C22.7185 16.9085 22.75 17.2007 22.75 17.5ZM17.5 21C17.9598 20.9998 18.415 20.9092 18.8397 20.7331C19.2644 20.5571 19.6502 20.2991 19.9753 19.9739C20.3003 19.6488 20.558 19.2628 20.7339 18.838C20.9097 18.4132 21.0001 17.9579 21 17.4982C20.9999 17.0385 20.9092 16.5832 20.7332 16.1585C20.5571 15.7338 20.2992 15.348 19.974 15.023C19.6488 14.698 19.2628 14.4402 18.8381 14.2644C18.4133 14.0885 17.958 13.9981 17.4983 13.9982C16.5698 13.9984 15.6794 14.3675 15.023 15.0242C14.3666 15.6809 13.998 16.5715 13.9983 17.5C13.9985 18.4284 14.3676 19.3188 15.0243 19.9752C15.681 20.6316 16.5715 21.0002 17.5 21ZM21.7 13.825H23.7983C23.9377 13.825 24.0714 13.7697 24.1701 13.6713C24.2688 13.5729 24.3245 13.4394 24.325 13.3V11.2017C24.325 11.062 24.2695 10.928 24.1707 10.8292C24.0719 10.7304 23.938 10.675 23.7983 10.675H21.7C21.5603 10.675 21.4263 10.7304 21.3275 10.8292C21.2288 10.928 21.1733 11.062 21.1733 11.2017V13.3C21.175 13.5887 21.4113 13.825 21.7 13.825ZM17.5 0.699951C13.0444 0.699951 8.77123 2.46995 5.62062 5.62056C2.47001 8.77117 0.700012 13.0443 0.700012 17.5C0.700012 21.9556 2.47001 26.2287 5.62062 29.3793C8.77123 32.53 13.0444 34.3 17.5 34.3C19.7062 34.3 21.8908 33.8654 23.9291 33.0211C25.9674 32.1768 27.8194 30.9394 29.3794 29.3793C30.9394 27.8193 32.1769 25.9673 33.0212 23.929C33.8655 21.8908 34.3 19.7062 34.3 17.5C34.3 15.2937 33.8655 13.1091 33.0212 11.0709C32.1769 9.0326 30.9394 7.18058 29.3794 5.62056C27.8194 4.06053 25.9674 2.82305 23.9291 1.97878C21.8908 1.1345 19.7062 0.699951 17.5 0.699951ZM26.25 24.3057C26.25 25.375 25.375 26.25 24.3058 26.25H10.6943C9.62501 26.25 8.75001 25.375 8.75001 24.3057V10.6942C8.75001 9.62495 9.62501 8.74995 10.6943 8.74995H24.3058C25.375 8.74995 26.25 9.62495 26.25 10.6942V24.3057Z" fill="black"/>
</g>
<defs>
<clipPath id="clip0_7_290">
<rect width="35" height="35" fill="white"/>
</clipPath>
</defs>
</svg>
