<svg width="35" height="35" viewBox="0 0 35 35" fill="none" xmlns="http://www.w3.org/2000/svg">
<g clip-path="url(#clip0_7_286)">
<path d="M20.3053 17.2077L16.3748 15.3737C16.0318 15.2145 15.75 15.393 15.75 15.7727V19.2272C15.75 19.607 16.0318 19.7855 16.3748 19.6262L20.3035 17.7922C20.6483 17.6312 20.6483 17.3687 20.3053 17.2077ZM17.5 0.699951C8.22151 0.699951 0.700012 8.22145 0.700012 17.5C0.700012 26.7785 8.22151 34.3 17.5 34.3C26.7785 34.3 34.3 26.7785 34.3 17.5C34.3 8.22145 26.7785 0.699951 17.5 0.699951ZM17.5 24.325C8.90051 24.325 8.75001 23.5497 8.75001 17.5C8.75001 11.4502 8.90051 10.675 17.5 10.675C26.0995 10.675 26.25 11.4502 26.25 17.5C26.25 23.5497 26.0995 24.325 17.5 24.325Z" fill="black"/>
</g>
<defs>
<clipPath id="clip0_7_286">
<rect width="35" height="35" fill="white"/>
</clipPath>
</defs>
</svg>
