<svg width="35" height="35" viewBox="0 0 35 35" fill="none" xmlns="http://www.w3.org/2000/svg">
<g clip-path="url(#clip0_1_37)">
<path fill-rule="evenodd" clip-rule="evenodd" d="M4.375 6.5625C4.375 5.98234 4.60547 5.42594 5.0157 5.0157C5.42594 4.60547 5.98234 4.375 6.5625 4.375H28.4375C29.0177 4.375 29.5741 4.60547 29.9843 5.0157C30.3945 5.42594 30.625 5.98234 30.625 6.5625V9.60458C30.6248 10.3781 30.3174 11.1198 29.7704 11.6667L21.875 19.5621V30.3888C21.875 30.6622 21.8052 30.9312 21.672 31.17C21.5389 31.4089 21.3469 31.6098 21.1143 31.7535C20.8816 31.8973 20.6161 31.9792 20.3429 31.9915C20.0697 32.0038 19.7979 31.9461 19.5533 31.8238L14.1327 29.1142C13.8299 28.9628 13.5753 28.7301 13.3973 28.4421C13.2193 28.1541 13.125 27.8223 13.125 27.4838V19.5621L5.22958 11.6667C4.68256 11.1198 4.37517 10.3781 4.375 9.60458V6.5625ZM7.29167 7.29167V9.60458L15.4 17.7129C15.6034 17.916 15.7647 18.1572 15.8748 18.4227C15.9849 18.6882 16.0416 18.9728 16.0417 19.2602V26.8071L18.9583 28.2654V19.2602C18.9583 18.6798 19.1887 18.1227 19.6 17.7144L27.7083 9.60313V7.29167H7.29167Z" fill="black"/>
</g>
<defs>
<clipPath id="clip0_1_37">
<rect width="35" height="35" fill="white"/>
</clipPath>
</defs>
</svg>
