<svg width="35" height="35" viewBox="0 0 35 35" fill="none" xmlns="http://www.w3.org/2000/svg">
<path d="M17.5014 2.91663C25.5558 2.91663 32.0848 9.44558 32.0848 17.5C32.0848 25.5543 25.5558 32.0833 17.5014 32.0833C14.9242 32.0875 12.3924 31.4054 10.166 30.1073L2.92394 32.0833L4.89561 24.8383C3.59637 22.6112 2.91381 20.0783 2.91811 17.5C2.91811 9.44558 9.44707 2.91663 17.5014 2.91663ZM12.5314 10.6458L12.2398 10.6575C12.051 10.669 11.8664 10.7186 11.6973 10.8033C11.5391 10.8929 11.3947 11.0049 11.2685 11.1358C11.0935 11.3006 10.9944 11.4435 10.8879 11.582C10.3485 12.2834 10.0581 13.1444 10.0625 14.0291C10.0654 14.7437 10.2521 15.4393 10.5437 16.0898C11.1402 17.4052 12.1217 18.7979 13.4167 20.0885C13.7287 20.3991 14.035 20.7112 14.3646 21.0014C15.9737 22.4181 17.8912 23.4398 19.9646 23.9852L20.7929 24.112C21.0627 24.1266 21.3325 24.1062 21.6037 24.0931C22.0285 24.0712 22.4432 23.9562 22.8185 23.7562C23.0095 23.6578 23.1959 23.5508 23.3771 23.4354C23.3771 23.4354 23.4398 23.3945 23.5594 23.3041C23.7562 23.1583 23.8773 23.0548 24.0406 22.8841C24.1617 22.7587 24.2667 22.6114 24.3469 22.4437C24.4606 22.206 24.5744 21.7525 24.621 21.3748C24.656 21.086 24.6458 20.9285 24.6414 20.8308C24.6356 20.6748 24.5058 20.5129 24.3644 20.4443L23.5156 20.0637C23.5156 20.0637 22.2469 19.511 21.471 19.1581C21.3898 19.1226 21.3029 19.1024 21.2144 19.0983C21.1146 19.088 21.0138 19.0993 20.9187 19.1312C20.8236 19.1632 20.7365 19.2151 20.6631 19.2835C20.6558 19.2806 20.5581 19.3637 19.5037 20.6412C19.4432 20.7225 19.3599 20.784 19.2643 20.8177C19.1687 20.8515 19.0652 20.8561 18.9671 20.8308C18.8721 20.8053 18.779 20.7732 18.6885 20.7345C18.5077 20.6587 18.445 20.6295 18.321 20.577C17.484 20.2118 16.7091 19.7183 16.0242 19.1143C15.8404 18.9539 15.6698 18.7789 15.4948 18.6098C14.9211 18.0603 14.421 17.4387 14.0073 16.7606L13.9212 16.622C13.8594 16.529 13.8095 16.4285 13.7725 16.3231C13.7171 16.1087 13.8614 15.9366 13.8614 15.9366C13.8614 15.9366 14.2158 15.5487 14.3806 15.3387C14.541 15.1345 14.6767 14.9362 14.7642 14.7948C14.9362 14.5177 14.9902 14.2333 14.8998 14.0131C14.4914 13.0156 14.0685 12.0225 13.6339 11.0366C13.5479 10.8412 13.2927 10.7012 13.0608 10.6735C12.9821 10.6648 12.9033 10.656 12.8246 10.6502C12.6287 10.6404 12.4325 10.6424 12.2369 10.656L12.53 10.6443L12.5314 10.6458Z" fill="#4ECB71"/>
</svg>
