<svg width="116" height="23" viewBox="0 0 116 23" fill="none" xmlns="http://www.w3.org/2000/svg">
<path d="M0.785156 2.13281C0.613281 1.50781 0.792969 1.19531 1.32422 1.19531H3.49219C3.85938 1.19531 4.10547 1.45312 4.23047 1.96875L6.45703 11.1797C6.62109 11.8516 6.72656 12.3125 6.77344 12.5625C6.82812 12.8047 6.875 13.1992 6.91406 13.7461H6.97266C7.01172 13.1992 7.05078 12.7852 7.08984 12.5039C7.12891 12.2227 7.24219 11.7578 7.42969 11.1094L10.043 2.0625C10.207 1.48438 10.5352 1.19531 11.0273 1.19531H13.1836C13.6758 1.19531 14.0039 1.48438 14.168 2.0625L16.7812 11.1094C16.9688 11.7578 17.082 12.2227 17.1211 12.5039C17.1602 12.7852 17.1992 13.1992 17.2383 13.7461H17.2969C17.3359 13.1992 17.3789 12.8047 17.4258 12.5625C17.4805 12.3125 17.5898 11.8516 17.7539 11.1797L19.9805 1.96875C20.1055 1.45312 20.3516 1.19531 20.7188 1.19531H22.8867C23.418 1.19531 23.5977 1.50781 23.4258 2.13281L19.4414 16.8633C19.2383 17.6211 18.8711 18 18.3398 18H16.2891C15.8359 18 15.5039 17.625 15.293 16.875L12.4805 7.05469C12.3242 6.52344 12.2344 6.17969 12.2109 6.02344C12.1875 5.85938 12.1562 5.55859 12.1172 5.12109H12.0938C12.0547 5.55859 12.0234 5.85938 12 6.02344C11.9766 6.17969 11.8867 6.52344 11.7305 7.05469L8.91797 16.875C8.70703 17.625 8.375 18 7.92188 18H5.87109C5.33984 18 4.97266 17.6211 4.76953 16.8633L0.785156 2.13281ZM25.9922 18C25.5234 18 25.2891 17.7656 25.2891 17.2969V1.40625C25.2891 0.9375 25.5234 0.703125 25.9922 0.703125H27.8672C28.3359 0.703125 28.5703 0.9375 28.5703 1.40625V6.14062C28.5703 6.45312 28.5547 6.76562 28.5234 7.07812H28.5938C28.9531 6.46094 29.4102 6.03906 29.9648 5.8125C30.5195 5.57812 31.1875 5.46094 31.9688 5.46094C33.1875 5.46094 34.1953 5.84375 34.9922 6.60938C35.7891 7.375 36.1875 8.77344 36.1875 10.8047V17.2969C36.1875 17.7656 35.9531 18 35.4844 18H33.6094C33.1406 18 32.9062 17.7656 32.9062 17.2969V11.6484C32.9062 9.94531 32.7891 8.87109 32.5547 8.42578C32.3203 7.98047 31.8164 7.75781 31.043 7.75781C30.2227 7.75781 29.6055 8.07812 29.1914 8.71875C28.7773 9.35156 28.5703 10.6719 28.5703 12.6797V17.2969C28.5703 17.7656 28.3359 18 27.8672 18H25.9922ZM38.6953 14.7188C38.6953 13.1562 39.4414 12.0234 40.9336 11.3203C42.4258 10.6172 44.1289 10.2422 46.043 10.1953V9.72656C46.043 9.00781 45.8633 8.5 45.5039 8.20312C45.1445 7.90625 44.6445 7.75781 44.0039 7.75781C43.5508 7.75781 43.1484 7.82422 42.7969 7.95703C42.4531 8.08203 42.1523 8.23047 41.8945 8.40234C41.6445 8.56641 41.418 8.73438 41.2148 8.90625C40.8555 9.21875 40.5586 9.23438 40.3242 8.95312L39.3516 7.75781C39.1094 7.46094 39.168 7.15625 39.5273 6.84375C39.8008 6.60156 40.1172 6.39062 40.4766 6.21094C40.8438 6.03125 41.3281 5.86328 41.9297 5.70703C42.5312 5.54297 43.3125 5.46094 44.2734 5.46094C45.8984 5.46094 47.1445 5.83594 48.0117 6.58594C48.8867 7.33594 49.3242 8.44141 49.3242 9.90234V17.2969C49.3242 17.7656 49.0898 18 48.6211 18H46.6992C46.2773 18 46.0664 17.7656 46.0664 17.2969V16.9453H46.043C45.582 17.3906 45.0273 17.7188 44.3789 17.9297C43.7383 18.1328 43.1484 18.2344 42.6094 18.2344C41.3281 18.2344 40.3555 17.9219 39.6914 17.2969C39.0273 16.6641 38.6953 15.8047 38.6953 14.7188ZM42.1641 14.6484C42.1641 14.9219 42.2188 15.1602 42.3281 15.3633C42.4375 15.5586 42.6094 15.7031 42.8438 15.7969C43.0781 15.8906 43.3398 15.9375 43.6289 15.9375C44.0273 15.9375 44.4141 15.8828 44.7891 15.7734C45.1641 15.6641 45.582 15.4062 46.043 15V12.457C44.7305 12.6055 43.8516 12.7969 43.4062 13.0312C42.9609 13.2656 42.6406 13.5078 42.4453 13.7578C42.2578 14.0078 42.1641 14.3047 42.1641 14.6484ZM52.1133 8.03906C51.6523 8.03906 51.4219 7.84375 51.4219 7.45312V6.28125C51.4219 5.89062 51.6523 5.69531 52.1133 5.69531H52.9102V5.28516C52.9102 4.93359 52.9922 4.61328 53.1562 4.32422L54.0586 2.74219C54.2305 2.44531 54.4336 2.29688 54.668 2.29688H55.4883C55.957 2.29688 56.1914 2.53125 56.1914 3V5.69531H58.0898C58.5508 5.69531 58.7812 5.89062 58.7812 6.28125V7.45312C58.7812 7.84375 58.5508 8.03906 58.0898 8.03906H56.1914V13.8516C56.1914 14.6484 56.2461 15.2227 56.3555 15.5742C56.4727 15.918 56.7695 16.0898 57.2461 16.0898C57.4883 16.0898 57.7617 16.0508 58.0664 15.9727C58.3711 15.8867 58.6094 15.8047 58.7812 15.7266C59.0547 15.6016 59.2344 15.6914 59.3203 15.9961L59.6719 17.332C59.7422 17.5977 59.6406 17.793 59.3672 17.918C59.1094 18.0352 58.7539 18.1406 58.3008 18.2344C57.8555 18.3359 57.4062 18.3867 56.9531 18.3867C55.8359 18.3867 54.8828 18.1562 54.0938 17.6953C53.3047 17.2344 52.9102 16.2852 52.9102 14.8477V8.03906H52.1133ZM61.6289 17.1797C61.2461 16.9062 61.1406 16.6133 61.3125 16.3008L61.9102 15.2109C62.1211 14.8203 62.4492 14.7734 62.8945 15.0703C63.3398 15.3672 63.8633 15.5859 64.4648 15.7266C65.0742 15.8672 65.6289 15.9375 66.1289 15.9375C66.4805 15.9375 66.8086 15.9023 67.1133 15.832C67.418 15.7617 67.6758 15.625 67.8867 15.4219C68.0977 15.2188 68.2031 14.9219 68.2031 14.5312C68.2031 14.2969 68.1406 14.0977 68.0156 13.9336C67.8906 13.7695 67.7305 13.6445 67.5352 13.5586C67.3398 13.4727 67.1328 13.4023 66.9141 13.3477C66.625 13.2773 66.207 13.1602 65.6602 12.9961C65.1211 12.832 64.6016 12.6406 64.1016 12.4219C63.6875 12.2422 63.2812 11.9922 62.8828 11.6719C62.4922 11.3438 62.2031 10.9805 62.0156 10.582C61.8359 10.1836 61.7461 9.69141 61.7461 9.10547C61.7461 8.31641 61.9727 7.625 62.4258 7.03125C62.8867 6.4375 63.4805 6.02734 64.207 5.80078C64.9336 5.57422 65.8398 5.46094 66.9258 5.46094C67.6602 5.46094 68.375 5.56641 69.0703 5.77734C69.7656 5.98828 70.2617 6.1875 70.5586 6.375C71.0273 6.67188 71.1445 6.98828 70.9102 7.32422L70.1953 8.36719C69.9766 8.67969 69.625 8.70312 69.1406 8.4375C68.7734 8.23438 68.4102 8.07031 68.0508 7.94531C67.6992 7.82031 67.3047 7.75781 66.8672 7.75781C66.5703 7.75781 66.2852 7.78906 66.0117 7.85156C65.7383 7.91406 65.5039 8.03125 65.3086 8.20312C65.1211 8.375 65.0273 8.60156 65.0273 8.88281C65.0273 9.17969 65.1133 9.41406 65.2852 9.58594C65.4648 9.75 65.668 9.87109 65.8945 9.94922C66.1289 10.0273 66.3516 10.1016 66.5625 10.1719C67 10.3125 67.4414 10.4492 67.8867 10.582C68.332 10.707 68.7852 10.8594 69.2461 11.0391C69.6445 11.1953 70.0312 11.418 70.4062 11.707C70.7812 11.9961 71.0547 12.3633 71.2266 12.8086C71.3984 13.2539 71.4844 13.7617 71.4844 14.332C71.4844 15.0898 71.2578 15.793 70.8047 16.4414C70.3516 17.0898 69.7539 17.5508 69.0117 17.8242C68.2695 18.0977 67.4062 18.2344 66.4219 18.2344C65.3203 18.2344 64.3828 18.1562 63.6094 18C62.8359 17.8438 62.1758 17.5703 61.6289 17.1797ZM73.418 18C72.8555 18 72.6719 17.7422 72.8672 17.2266L78.6094 2.14453C78.8516 1.51172 79.2188 1.19531 79.7109 1.19531H81.3516C81.8438 1.19531 82.2109 1.51172 82.4531 2.14453L88.1953 17.2266C88.3906 17.7422 88.207 18 87.6445 18H85.7812C85.2656 18 84.9062 17.7305 84.7031 17.1914L83.5078 14.0391H77.5547L76.3594 17.1914C76.1562 17.7305 75.7969 18 75.2812 18H73.418ZM78.6445 11.1328H82.418L80.9766 7.40625C80.8047 6.96875 80.6992 6.65234 80.6602 6.45703C80.6289 6.25391 80.5938 5.95703 80.5547 5.56641H80.5078C80.4688 5.95703 80.4297 6.25391 80.3906 6.45703C80.3594 6.65234 80.2578 6.96875 80.0859 7.40625L78.6445 11.1328ZM90.7031 22.6875C90.2344 22.6875 90 22.4531 90 21.9844V6.39844C90 5.92969 90.2344 5.69531 90.7031 5.69531H92.5547C92.9453 5.69531 93.1562 5.92969 93.1875 6.39844L93.2344 7.07812H93.2812C93.6875 6.40625 94.1406 5.96875 94.6406 5.76562C95.1406 5.5625 95.7422 5.46094 96.4453 5.46094C98.2812 5.46094 99.5703 6.09766 100.312 7.37109C101.062 8.63672 101.438 10.1289 101.438 11.8477C101.438 13.5664 101.062 15.0625 100.312 16.3359C99.5703 17.6016 98.2812 18.2344 96.4453 18.2344C95.7422 18.2344 95.1406 18.1328 94.6406 17.9297C94.1406 17.7266 93.6875 17.2891 93.2812 16.6172H93.2344C93.2656 16.9297 93.2812 17.2422 93.2812 17.5547V21.9844C93.2812 22.4531 93.0469 22.6875 92.5781 22.6875H90.7031ZM93.2812 12.375C93.2812 13.4297 93.4883 14.2891 93.9023 14.9531C94.3242 15.6094 94.8281 15.9375 95.4141 15.9375C96.4688 15.9375 97.1562 15.5703 97.4766 14.8359C97.8047 14.0938 97.9688 13.0977 97.9688 11.8477C97.9688 10.5977 97.8047 9.60547 97.4766 8.87109C97.1562 8.12891 96.4688 7.75781 95.4141 7.75781C94.8281 7.75781 94.3242 8.08984 93.9023 8.75391C93.4883 9.41016 93.2812 10.2656 93.2812 11.3203V12.375ZM104.672 22.6875C104.203 22.6875 103.969 22.4531 103.969 21.9844V6.39844C103.969 5.92969 104.203 5.69531 104.672 5.69531H106.523C106.914 5.69531 107.125 5.92969 107.156 6.39844L107.203 7.07812H107.25C107.656 6.40625 108.109 5.96875 108.609 5.76562C109.109 5.5625 109.711 5.46094 110.414 5.46094C112.25 5.46094 113.539 6.09766 114.281 7.37109C115.031 8.63672 115.406 10.1289 115.406 11.8477C115.406 13.5664 115.031 15.0625 114.281 16.3359C113.539 17.6016 112.25 18.2344 110.414 18.2344C109.711 18.2344 109.109 18.1328 108.609 17.9297C108.109 17.7266 107.656 17.2891 107.25 16.6172H107.203C107.234 16.9297 107.25 17.2422 107.25 17.5547V21.9844C107.25 22.4531 107.016 22.6875 106.547 22.6875H104.672ZM107.25 12.375C107.25 13.4297 107.457 14.2891 107.871 14.9531C108.293 15.6094 108.797 15.9375 109.383 15.9375C110.438 15.9375 111.125 15.5703 111.445 14.8359C111.773 14.0938 111.938 13.0977 111.938 11.8477C111.938 10.5977 111.773 9.60547 111.445 8.87109C111.125 8.12891 110.438 7.75781 109.383 7.75781C108.797 7.75781 108.293 8.08984 107.871 8.75391C107.457 9.41016 107.25 10.2656 107.25 11.3203V12.375Z" fill="#4ECB71"/>
</svg>
